<svg xmlns="http://www.w3.org/2000/svg" width="27.21238917887692" height="28.23008848810656" fill="none"><rect id="backgroundrect" width="100%" height="100%" x="0" y="0" fill="none" stroke="none" class="selected" style=""/>



<mask id="mask0_6_750" style="mask-type:alpha" maskUnits="userSpaceOnUse" x="0" y="1" width="30" height="28">
<path d="M30 1H0V29H30V1Z" fill="white" id="svg_1"/>
<path d="M21.9911 4.4715L22.5578 2.39786C22.636 2.11151 22.9359 1.94171 23.2275 2.01843C23.5193 2.09516 23.6923 2.38947 23.6142 2.67582L23.0476 4.74946C22.9692 5.03602 22.6693 5.2054 22.3777 5.12889C22.0859 5.05196 21.9129 4.75785 21.9911 4.4715Z" fill="black" id="svg_2"/>
<path fill-rule="evenodd" clip-rule="evenodd" d="M9.00318 26.9265L6.24914 22.2452C4.51837 22.9253 2.47997 22.2788 1.51311 20.6353C0.454825 18.838 1.08758 16.5383 2.91427 15.5038L7.55866 12.8726L14.7026 3.94201C15.0064 3.47558 15.5191 3.19971 16.0839 3.19971C16.091 3.19971 16.0978 3.19971 16.1049 3.19992C16.6893 3.20705 17.2129 3.50787 17.5052 4.00468L19.5228 7.4342L21.6268 7.31031C21.833 7.29836 22.0297 7.40149 22.1333 7.57758L23.2271 9.43656C23.3307 9.61265 23.3238 9.83087 23.2098 10.0007L22.0483 11.727L23.8658 14.816C24.4798 15.8589 23.7515 17.1634 22.536 17.2282L22.4367 17.2473C12.6998 19.1217 12.1457 19.2283 12.0612 19.2444L12.7723 20.4531C12.9234 20.7097 12.8337 21.0378 12.5722 21.1862L11.1514 21.9912L12.792 24.7801C13.3972 25.8075 13.0377 27.1191 11.9916 27.7123C10.9343 28.3121 9.59748 27.9377 9.00318 26.9265ZM11.4443 26.7829C11.9683 26.4858 12.1471 25.8297 11.845 25.3169C11.845 25.3169 11.7561 25.1659 10.7712 23.4918L9.11042 20.6686L7.216 21.7419L9.95038 26.39C10.249 26.8979 10.9185 27.0812 11.4443 26.7829ZM10.0576 20.132L10.6045 21.0615L11.5517 20.5248L11.0048 19.5953L10.0576 20.132ZM22.1109 9.68602L21.3551 8.40142L20.1342 8.47332L21.4369 10.6876L22.1109 9.68602ZM16.0914 4.27301C15.997 4.27049 15.3341 5.02394 15.1873 5.25956C15.1689 5.2892 15.1548 5.30678 15.1071 5.36601C15.0823 5.39685 15.0483 5.43902 15 5.5L21.2001 16.0499C21.2619 16.0386 21.3074 16.0295 21.343 16.0224C21.4172 16.0076 21.4497 16.0011 21.5 16C21.9155 15.9899 23.1258 15.7046 22.9186 15.3527L16.5578 4.54112C16.4174 4.30257 16.1848 4.27406 16.0914 4.27301ZM20.1342 16.4333L14 6.5L8.58213 13.3312L11.4831 18.2619L20.1342 16.4333ZM2.09332 18.7598C2.09332 19.2281 2.22021 19.6909 2.46032 20.0987C3.2142 21.3799 4.88965 21.8205 6.19553 21.081L10.458 18.6659L7.72357 14.0184L3.46115 16.4333C2.61755 16.9113 2.09332 17.8026 2.09332 18.7598Z" fill="black" id="svg_3"/>
<path d="M25.1399 6.01164L28.1872 4.34761C28.451 4.20338 28.7841 4.29646 28.9308 4.55556C29.0778 4.81445 28.9829 5.14126 28.7189 5.28548L25.6718 6.94951C25.4073 7.09394 25.0745 7.00024 24.9279 6.74156C24.781 6.48267 24.876 6.15586 25.1399 6.01164Z" fill="black" id="svg_4"/>
<path d="M27.8676 9.90573L25.7547 9.35021C25.4629 9.27349 25.1629 9.44329 25.0847 9.72964C25.0066 10.016 25.1798 10.3101 25.4716 10.3868L27.5848 10.9423C27.8783 11.0197 28.1767 10.8472 28.2545 10.5629C28.3327 10.2766 28.1594 9.98224 27.8676 9.90573Z" fill="black" id="svg_5"/>
</mask>

<mask id="mask1_6_750" style="mask-type:alpha" maskUnits="userSpaceOnUse" x="1" y="91" width="28" height="28">
<path d="M29 91H1V119H29V91Z" fill="white" id="svg_6"/>
<path d="M27.0016 106.379L16.9113 96.2781C16.3784 95.7451 15.6661 95.4476 14.9145 95.4476C14.8528 95.4476 14.7911 95.4476 14.7294 95.4533L7.43231 95.9358C6.64146 95.9863 6.00205 96.626 5.95157 97.4173L5.7777 100.01C5.40751 99.7965 5.05416 99.5272 4.73445 99.2073C3.95482 98.4273 3.47246 97.4565 3.3715 96.4689C3.27615 95.5318 3.54537 94.6957 4.1287 94.1121C5.36825 92.872 7.65106 93.147 9.22715 94.7182C9.49076 94.9819 9.91704 94.9819 10.1807 94.7182C10.4443 94.4544 10.4443 94.028 10.1807 93.7642C8.07172 91.6712 4.93076 91.4018 3.16958 93.1638C2.2946 94.0392 1.89076 95.2569 2.02537 96.6092C2.15438 97.9055 2.77696 99.168 3.77534 100.167C4.33622 100.728 4.98685 101.171 5.67674 101.474L5.4636 104.723C5.40751 105.537 5.71039 106.334 6.28811 106.912L16.3841 117.012C17.0235 117.652 17.8704 118 18.7734 118C19.6765 118 20.5234 117.646 21.1628 117.012L27.0128 111.16C27.6523 110.52 28 109.673 28 108.769C27.9944 107.86 27.641 107.013 27.0016 106.379ZM26.0537 110.2L20.1981 116.058C19.8167 116.44 19.3063 116.653 18.7622 116.653C18.2181 116.653 17.7077 116.44 17.3263 116.058L7.23039 105.958C6.92752 105.655 6.77047 105.24 6.79851 104.813L6.99482 101.873C7.107 101.89 7.21918 101.906 7.33135 101.918C7.49962 101.934 7.66789 101.946 7.83054 101.946C8.98036 101.946 10.0068 101.542 10.7696 100.779C11.0332 100.515 11.0332 100.088 10.7696 99.8246C10.506 99.5608 10.0797 99.5608 9.81608 99.8246C9.23276 100.408 8.39704 100.678 7.46036 100.582C7.33135 100.571 7.20796 100.548 7.08456 100.526L7.28648 97.5183C7.29209 97.3948 7.39305 97.2994 7.51645 97.2882L14.8136 96.8056C14.8472 96.8056 14.8809 96.8 14.9145 96.8C15.3072 96.8 15.6886 96.9571 15.9634 97.2321L26.0537 107.327C26.4351 107.709 26.6483 108.219 26.6483 108.764C26.6483 109.308 26.4351 109.819 26.0537 110.2Z" fill="black" id="svg_7"/>
</mask>



<mask id="mask2_6_750" style="mask-type:alpha" maskUnits="userSpaceOnUse" x="2" y="154" width="26" height="22">
<path d="M28 154H2V176H28V154Z" fill="white" id="svg_8"/>
<path d="M3.92921 155C3.41602 155 3 155.448 3 156C3 156.552 3.41602 157 3.92921 157H24.3718C24.885 157 25.301 156.552 25.301 156C25.301 155.448 24.885 155 24.3718 155H3.92921Z" fill="black" id="svg_9"/>
<path d="M3.92921 164C3.41602 164 3 164.448 3 165C3 165.552 3.41602 166 3.92921 166H11.3629C11.8761 166 12.2921 165.552 12.2921 165C12.2921 164.448 11.8761 164 11.3629 164H3.92921Z" fill="black" id="svg_10"/>
<path d="M3 174C3 173.448 3.41602 173 3.92921 173H14.1505C14.6637 173 15.0797 173.448 15.0797 174C15.0797 174.552 14.6637 175 14.1505 175H3.92921C3.41602 175 3 174.552 3 174Z" fill="black" id="svg_11"/>
<path fill-rule="evenodd" clip-rule="evenodd" d="M24.294 170.44C24.9286 169.466 25.301 168.28 25.301 167C25.301 163.686 22.8049 161 19.7258 161C16.6466 161 14.1505 163.686 14.1505 167C14.1505 170.314 16.6466 173 19.7258 173C20.915 173 22.0172 172.599 22.9223 171.917L25.3443 174.523C25.7231 174.931 26.3372 174.931 26.7159 174.523C27.0947 174.115 27.0947 173.455 26.7159 173.047L24.294 170.44ZM23.4426 167C23.4426 169.209 21.7785 171 19.7258 171C17.673 171 16.0089 169.209 16.0089 167C16.0089 164.791 17.673 163 19.7258 163C21.7785 163 23.4426 164.791 23.4426 167Z" fill="black" id="svg_12"/>
</mask>
























<mask id="mask3_6_750" style="mask-type:alpha" maskUnits="userSpaceOnUse" x="33" y="122" width="25" height="26">
<path d="M58 122H33V148H58V122Z" fill="white" id="svg_13"/>
<path d="M38.2824 125.656H35.9466C35.7316 125.656 35.5572 125.831 35.5572 126.046C35.5572 126.261 35.7316 126.435 35.9466 126.435H38.2824C38.4974 126.435 38.6717 126.261 38.6717 126.046C38.6717 125.831 38.4974 125.656 38.2824 125.656Z" fill="black" id="svg_14"/>
<path d="M35.9466 143.565H38.2824C38.4974 143.565 38.6717 143.739 38.6717 143.954C38.6717 144.169 38.4974 144.343 38.2824 144.343H35.9466C35.7316 144.343 35.5572 144.169 35.5572 143.954C35.5572 143.739 35.7316 143.565 35.9466 143.565Z" fill="black" id="svg_15"/>
<path d="M41.3969 125.656H43.7327C43.9477 125.656 44.122 125.831 44.122 126.046C44.122 126.261 43.9477 126.435 43.7327 126.435H41.3969C41.1819 126.435 41.0076 126.261 41.0076 126.046C41.0076 125.831 41.1819 125.656 41.3969 125.656Z" fill="black" id="svg_16"/>
<path d="M43.7327 143.565H41.3969C41.1819 143.565 41.0076 143.739 41.0076 143.954C41.0076 144.169 41.1819 144.343 41.3969 144.343H43.7327C43.9477 144.343 44.122 144.169 44.122 143.954C44.122 143.739 43.9477 143.565 43.7327 143.565Z" fill="black" id="svg_17"/>
<path d="M50.7168 125.955C50.6667 125.746 50.4566 125.617 50.2475 125.667C50.2407 125.669 50.234 125.671 50.2272 125.673L47.9692 126.277C47.7613 126.332 47.637 126.545 47.6916 126.752C47.7462 126.96 47.959 127.085 48.167 127.03L48.1705 127.029L50.4289 126.425C50.638 126.375 50.7669 126.164 50.7168 125.955Z" fill="black" id="svg_18"/>
<path d="M54.8674 142.971C55.0739 142.917 55.2856 143.039 55.3418 143.245C55.3983 143.452 55.276 143.666 55.0686 143.723L52.8106 144.327C52.7778 144.336 52.7439 144.341 52.7098 144.341C52.5335 144.341 52.3791 144.222 52.3335 144.052C52.278 143.844 52.4013 143.631 52.609 143.575L54.8674 142.971Z" fill="black" id="svg_19"/>
<path fill-rule="evenodd" clip-rule="evenodd" d="M57.4493 145.099L51.6053 123.288C51.5497 123.081 51.3369 122.958 51.1296 123.013L45.8638 124.424C45.7916 124.445 45.7274 124.488 45.6793 124.546V123.71C45.6793 123.495 45.505 123.321 45.29 123.321H34.3893C34.1743 123.321 34 123.495 34 123.71V146.29C34 146.505 34.1743 146.679 34.3893 146.679H45.29C45.505 146.679 45.6793 146.505 45.6793 146.29V125.239L51.4325 146.712C51.4781 146.882 51.6323 147 51.8086 147C51.8422 147 51.8757 146.995 51.9082 146.987L57.1729 145.576C57.3807 145.521 57.5043 145.307 57.4493 145.099ZM39.4503 145.901H34.7786V124.099H39.4503V145.901ZM44.9007 145.901H40.2289V124.099H44.9007V145.901ZM52.0838 146.134L46.4415 125.075L50.954 123.866L56.5963 144.925L52.0838 146.134Z" fill="black" id="svg_20"/>
</mask>


<mask id="mask4_6_750" style="mask-type:alpha" maskUnits="userSpaceOnUse" x="30" y="182" width="30" height="25">
<path d="M60 182H30V207H60V182Z" fill="white" id="svg_21"/>
<path d="M47.3601 206.28C53.7785 206.28 59 201.058 59 194.639C59 188.221 53.7785 183 47.3601 183C46.5941 183 45.8449 183.088 45.1197 183.23V184.491C45.6452 184.375 46.1849 184.299 46.7366 184.266V185.973C46.7366 186.317 47.0153 186.596 47.3601 186.596C47.7045 186.596 47.9837 186.317 47.9837 185.973V184.266C50.3803 184.408 52.5607 185.367 54.2508 186.867L53.0476 188.071C52.8035 188.314 52.8035 188.709 53.0476 188.952C53.1692 189.074 53.3285 189.135 53.4883 189.135C53.6476 189.135 53.8074 189.074 53.929 188.952L55.1326 187.749C56.6327 189.439 57.5909 191.619 57.7334 194.016H56.0265C55.6821 194.016 55.4029 194.295 55.4029 194.639C55.4029 194.984 55.6821 195.263 56.0265 195.263H57.7334C57.5909 197.66 56.6327 199.84 55.1322 201.531L53.929 200.327C53.6853 200.084 53.2904 200.084 53.0476 200.327C52.8035 200.571 52.8035 200.966 53.0476 201.209L54.2508 202.412C52.5607 203.912 50.3803 204.871 47.9837 205.013V203.306C47.9837 202.962 47.7045 202.683 47.3601 202.683C47.0153 202.683 46.7366 202.962 46.7366 203.306V205.013C46.1849 204.98 45.6448 204.904 45.1197 204.789V206.063C45.8449 206.205 46.5941 206.28 47.3601 206.28Z" fill="black" id="svg_22"/>
<path d="M44.8827 204.723C45.3864 204.839 45.895 204.921 46.4054 204.982L46.4045 206.235C45.8001 206.169 45.1982 206.075 44.6018 205.938C44.2662 205.86 44.0572 205.526 44.1349 205.19C44.2121 204.854 44.5472 204.645 44.8827 204.723Z" fill="black" id="svg_23"/>
<path d="M47.3765 195.935C47.5167 195.935 47.6463 195.889 47.7506 195.81C48.3218 195.38 49.4859 194.05 50.0718 193.465C50.315 193.222 50.315 192.827 50.0718 192.583C49.8281 192.339 49.4336 192.339 49.1899 192.583L48.0001 193.773V190.736C48.0001 190.392 47.7209 190.112 47.3765 190.112C47.0317 190.112 46.7529 190.392 46.7529 190.736V195.312C46.7529 195.656 47.0317 195.935 47.3765 195.935Z" fill="black" id="svg_24"/>
<path d="M41.4277 184H38.5719C38.2572 184 38 184.224 38 184.5C38 184.775 38.2572 185 38.5719 185H41.4277C41.7428 185 42 184.775 42 184.5C42 184.224 41.7428 184 41.4277 184Z" fill="black" id="svg_25"/>
<path d="M41.4991 188H36.5005C36.2247 188 36 188.222 36 188.501C36 188.778 36.2247 189 36.5005 189H41.4991C41.7749 189 42 188.778 42 188.501C42 188.222 41.7749 188 41.4991 188Z" fill="black" id="svg_26"/>
<path d="M41.4696 192H33.53C33.238 192 33 192.225 33 192.5C33 192.776 33.238 193 33.53 193H41.4696C41.7616 193 42 192.776 42 192.5C42 192.225 41.7616 192 41.4696 192Z" fill="black" id="svg_27"/>
<path d="M41.4752 196H31.5244C31.2347 196 31 196.224 31 196.5C31 196.775 31.2347 197 31.5244 197H41.4752C41.7641 197 42 196.775 42 196.5C42 196.224 41.7641 196 41.4752 196Z" fill="black" id="svg_28"/>
<path d="M41.4656 200H34.5336C34.2369 200 34 200.222 34 200.498C34 200.778 34.2369 201 34.5336 201H41.4656C41.7598 201 42 200.778 42 200.498C42 200.222 41.7598 200 41.4656 200Z" fill="black" id="svg_29"/>
<path d="M41.4433 204H37.5528C37.2468 204 37 204.225 37 204.5C37 204.775 37.2468 205 37.5528 205H41.4433C41.7498 205 42 204.775 42 204.5C42 204.225 41.7498 204 41.4433 204Z" fill="black" id="svg_30"/>
<path d="M44.8827 184.567C45.3864 184.451 45.8941 184.36 46.4045 184.299V183.053C45.8001 183.118 45.1982 183.214 44.6018 183.352C44.2662 183.43 44.0572 183.764 44.1349 184.1C44.2121 184.436 44.5472 184.645 44.8827 184.567Z" fill="black" id="svg_31"/>
</mask>







<mask id="mask5_6_750" style="mask-type:alpha" maskUnits="userSpaceOnUse" x="30" y="275" width="30" height="20">
<path d="M60 275H30V295H60V275Z" fill="white" id="svg_32"/>
<path d="M58.985 288.448C58.9152 286.878 58.6362 285.137 58.2177 283.499C57.7992 281.929 57.2761 280.461 56.6483 279.334C54.207 275.136 51.5565 275.784 48.3829 276.603C47.3715 276.842 46.2904 277.116 45.1744 277.218H44.8256C43.7096 277.116 42.6285 276.842 41.6171 276.603C38.4435 275.818 35.793 275.136 33.3517 279.368C32.7239 280.495 32.1659 281.963 31.7823 283.533C31.3638 285.171 31.0848 286.912 31.015 288.483C30.9453 290.223 31.1197 291.486 31.5033 292.374C31.8869 293.193 32.4449 293.705 33.1773 293.91C33.8399 294.081 34.6072 294.012 35.4093 293.671C36.7695 293.125 38.3388 291.964 39.8733 290.565C40.9545 289.541 42.9772 289.029 45 289.029C47.0228 289.029 49.0455 289.541 50.1267 290.565C51.6612 291.964 53.2305 293.125 54.5907 293.671C55.3928 293.978 56.1601 294.081 56.8227 293.91C57.5202 293.705 58.1131 293.227 58.4967 292.34C58.8803 291.486 59.0547 290.223 58.985 288.448ZM57.3109 291.862C57.1017 292.34 56.8227 292.613 56.4739 292.715C56.0903 292.818 55.6021 292.749 55.0441 292.545C53.8234 292.067 52.3935 291.009 50.9985 289.711C49.6733 288.414 47.3366 287.766 45 287.766C42.6634 287.766 40.3267 288.414 38.9666 289.643C37.5367 290.94 36.1068 292.033 34.9211 292.476C34.3631 292.681 33.8748 292.784 33.4912 292.647C33.1424 292.545 32.8634 292.272 32.6542 291.794C32.3752 291.145 32.2357 290.087 32.3054 288.517C32.3752 287.049 32.6193 285.376 33.0378 283.806C33.4214 282.338 33.9097 280.973 34.5026 279.949C36.4207 276.569 38.6527 277.116 41.3032 277.798C42.3844 278.071 43.5004 278.344 44.721 278.447C44.7559 278.447 44.7559 278.447 44.7908 278.447H45.1744C45.2093 278.447 45.2093 278.447 45.2441 278.447C46.4996 278.344 47.6156 278.071 48.6968 277.798C51.3473 277.15 53.5793 276.569 55.4974 279.949C56.0903 280.973 56.5786 282.304 56.9622 283.806C57.3458 285.376 57.6248 287.015 57.6946 288.517C57.7643 290.087 57.6248 291.145 57.3109 291.862Z" fill="black" id="svg_33"/>
<path d="M41.7915 281.792C41.4428 281.485 41.0243 281.246 40.536 281.212C40.5011 280.768 40.2919 280.324 39.978 280.017L39.9431 279.983C39.5595 279.607 39.0712 279.403 38.5132 279.403C37.9552 279.403 37.4321 279.642 37.0834 279.983C36.7695 280.29 36.5254 280.734 36.4905 281.212C36.0022 281.246 35.5837 281.451 35.235 281.758L35.2001 281.792C34.8165 282.168 34.6072 282.645 34.6072 283.192C34.6072 283.738 34.8513 284.25 35.2001 284.591C35.5489 284.932 35.9674 285.137 36.4905 285.171C36.5254 285.649 36.7346 286.093 37.0834 286.4C37.467 286.776 37.9552 286.981 38.5132 286.981C39.0712 286.981 39.5944 286.742 39.9431 286.4C40.257 286.059 40.5011 285.649 40.536 285.171C41.0243 285.137 41.4776 284.932 41.7915 284.591C42.1751 284.216 42.3844 283.738 42.3844 283.192C42.3844 282.645 42.1403 282.133 41.7915 281.792ZM40.9196 283.704C40.7801 283.84 40.6058 283.908 40.3965 283.908H39.9082C39.5595 283.908 39.2456 284.182 39.2456 284.557V285.001C39.2456 285.206 39.1759 285.376 39.0364 285.513C38.8969 285.649 38.7225 285.718 38.5132 285.718C38.304 285.718 38.1296 285.649 37.9901 285.513C37.8506 285.376 37.7809 285.206 37.7809 285.001V284.523C37.7809 284.182 37.5019 283.874 37.1182 283.874H36.63C36.4207 283.874 36.2464 283.806 36.1069 283.669C36.0022 283.567 35.8976 283.396 35.8976 283.192C35.8976 282.987 35.9674 282.816 36.1069 282.68C36.1069 282.68 36.1069 282.68 36.1417 282.645C36.2812 282.543 36.4556 282.475 36.63 282.475H37.1182C37.467 282.475 37.7809 282.202 37.7809 281.826V281.348C37.7809 281.143 37.8506 280.973 37.9901 280.836C38.1296 280.7 38.304 280.631 38.5132 280.631C38.7225 280.631 38.8969 280.7 39.0364 280.836C39.0364 280.836 39.0364 280.836 39.0712 280.87C39.1759 281.007 39.2456 281.178 39.2456 281.348V281.826C39.2456 282.168 39.5246 282.475 39.9082 282.475H40.3965C40.6058 282.475 40.7801 282.543 40.9196 282.68C41.0591 282.816 41.1289 282.987 41.1289 283.192C41.1289 283.396 41.0591 283.567 40.9196 283.704Z" fill="black" id="svg_34"/>
<path d="M51.0683 281.963C51.7424 281.963 52.2889 281.428 52.2889 280.768C52.2889 280.108 51.7424 279.573 51.0683 279.573C50.3942 279.573 49.8477 280.108 49.8477 280.768C49.8477 281.428 50.3942 281.963 51.0683 281.963Z" fill="black" id="svg_35"/>
<path d="M51.0683 286.81C51.7424 286.81 52.2889 286.275 52.2889 285.615C52.2889 284.955 51.7424 284.421 51.0683 284.421C50.3942 284.421 49.8477 284.955 49.8477 285.615C49.8477 286.275 50.3942 286.81 51.0683 286.81Z" fill="black" id="svg_36"/>
<path d="M48.5921 284.386C49.2663 284.386 49.8128 283.851 49.8128 283.192C49.8128 282.532 49.2663 281.997 48.5921 281.997C47.918 281.997 47.3715 282.532 47.3715 283.192C47.3715 283.851 47.918 284.386 48.5921 284.386Z" fill="black" id="svg_37"/>
<path d="M53.5445 284.386C54.2186 284.386 54.7651 283.851 54.7651 283.192C54.7651 282.532 54.2186 281.997 53.5445 281.997C52.8703 281.997 52.3238 282.532 52.3238 283.192C52.3238 283.851 52.8703 284.386 53.5445 284.386Z" fill="black" id="svg_38"/>
</mask>

















<mask id="mask6_6_750" style="mask-type:alpha" maskUnits="userSpaceOnUse" x="60" y="133" width="30" height="13">
<path d="M89.5 133.875H60.5V145.875H89.5V133.875Z" fill="white" id="svg_39"/>
<path fill-rule="evenodd" clip-rule="evenodd" d="M67.8384 144.036C70.0363 144.036 71.872 142.23 71.872 139.937C71.872 137.645 70.0363 135.839 67.8384 135.839C65.6406 135.839 63.8049 137.645 63.8049 139.937C63.8049 142.23 65.6406 144.036 67.8384 144.036ZM67.8384 145C70.6116 145 72.8598 142.733 72.8598 139.937C72.8598 139.814 72.8553 139.691 72.8467 139.569C73.3073 139.327 74.0393 139.054 75 139.054C75.9607 139.054 76.6927 139.327 77.1533 139.569C77.1447 139.691 77.1402 139.814 77.1402 139.937C77.1402 142.733 79.3884 145 82.1616 145C84.6912 145 86.784 143.114 87.1321 140.661H88.0061C88.2789 140.661 88.5 140.445 88.5 140.179C88.5 139.912 88.2789 139.696 88.0061 139.696H87.1773C87.0525 137.012 84.8546 134.875 82.1616 134.875C79.8262 134.875 77.8632 136.482 77.3016 138.66C76.882 138.405 76.1324 138.089 75 138.089C73.8676 138.089 73.118 138.405 72.6984 138.66C72.1368 136.482 70.1738 134.875 67.8384 134.875C65.1454 134.875 62.9475 137.012 62.8227 139.696H61.9939C61.7211 139.696 61.5 139.912 61.5 140.179C61.5 140.445 61.7211 140.661 61.9939 140.661H62.8679C63.216 143.114 65.3088 145 67.8384 145ZM82.1616 144.036C84.3595 144.036 86.1951 142.23 86.1951 139.937C86.1951 137.645 84.3595 135.839 82.1616 135.839C79.9637 135.839 78.128 137.645 78.128 139.937C78.128 142.23 79.9637 144.036 82.1616 144.036Z" fill="black" id="svg_40"/>
</mask>


<mask id="mask7_6_750" style="mask-type:alpha" maskUnits="userSpaceOnUse" x="61" y="92" width="28" height="26">
<path d="M89 92H61V118H89V92Z" fill="white" id="svg_41"/>
<path d="M86.4766 113.609H85.0836V101.961C85.9991 101.727 86.6796 100.876 86.6796 99.8638V98.5222C86.6796 98.4061 86.642 98.2934 86.5727 98.2019L84.6484 95.6599V94.8633C84.6484 93.8359 83.8348 93 82.8348 93H67.1652C66.1652 93 65.3516 93.8359 65.3516 94.8633V95.6599L63.4273 98.2019C63.358 98.2934 63.3204 98.4062 63.3204 98.5222V99.8638C63.3204 100.876 64.0009 101.727 64.9164 101.961V113.609H63.5234C62.6834 113.609 62 114.311 62 115.174V116.478C62 116.766 62.2274 117 62.5078 117H87.4922C87.7726 117 88 116.766 88 116.478V115.174C88 114.311 87.3166 113.609 86.4766 113.609ZM85.664 99.8638C85.664 100.48 85.1759 100.982 84.5758 100.982C83.9758 100.982 83.4877 100.48 83.4877 99.8638V98.5576C83.4877 98.4669 83.4647 98.3778 83.421 98.299L82.3444 96.3606H83.8923L85.6641 98.7012V99.8638H85.664ZM70.4074 96.3606L69.7316 98.3885C69.7135 98.4429 69.7042 98.5 69.7042 98.5575V99.8642C69.704 100.48 69.2159 100.982 68.6161 100.982C68.0161 100.982 67.5279 100.48 67.5279 99.8637V98.6959L68.825 96.3606H70.4074ZM70.7199 98.6444L71.4809 96.3606H73.1369L72.8994 98.4984C72.8973 98.518 72.8962 98.5378 72.8962 98.5576V99.8643C72.8959 100.481 72.4079 100.982 71.8081 100.982C71.2081 100.982 70.7199 100.48 70.7199 99.8638C70.7199 99.8634 70.7198 99.8631 70.7198 99.8628L70.7199 98.6444ZM73.9118 98.5873L74.1592 96.3606H75.8408L76.0881 98.5873V99.8638C76.0881 100.48 75.6 100.982 74.9999 100.982C74.3999 100.982 73.9118 100.48 73.9118 99.8638C73.9118 99.8634 73.9118 99.8631 73.9118 99.8628V98.5873ZM77.1005 98.4984L76.8631 96.3606H78.5191L79.2801 98.6444V99.8638C79.2801 100.48 78.7919 100.982 78.1919 100.982C77.5919 100.982 77.1037 100.48 77.1037 99.8638V98.5576C77.1038 98.5378 77.1027 98.518 77.1005 98.4984ZM80.2684 98.3885L79.5926 96.3606H81.175L82.4721 98.696V99.8638C82.4721 100.48 81.9839 100.982 81.3839 100.982C80.7839 100.982 80.2957 100.48 80.2957 99.8638V98.5576C80.2958 98.5001 80.2865 98.443 80.2684 98.3885ZM67.1652 94.0434H82.8348C83.2748 94.0434 83.6328 94.4112 83.6328 94.8633V95.3171H66.3672V94.8633C66.3672 94.4113 66.7252 94.0434 67.1652 94.0434ZM64.336 99.8638V98.7012L66.1078 96.3606H67.6556L66.5791 98.299C66.5354 98.3778 66.5124 98.4669 66.5124 98.5576V99.8638C66.5124 100.48 66.0242 100.982 65.4242 100.982C64.8241 100.982 64.336 100.48 64.336 99.8638ZM86.9844 115.957H63.0156V115.174C63.0156 114.886 63.2434 114.652 63.5234 114.652H67.8544V113.609H65.932V101.961C66.3618 101.851 66.7401 101.605 67.0202 101.271C67.4063 101.732 67.9786 102.025 68.6162 102.025C69.2538 102.025 69.826 101.732 70.2122 101.271C70.5983 101.732 71.1705 102.025 71.8082 102.025C72.4458 102.025 73.018 101.732 73.4042 101.271C73.7903 101.732 74.3625 102.025 75.0001 102.025C75.6377 102.025 76.21 101.732 76.5961 101.271C76.9822 101.732 77.5545 102.025 78.1921 102.025C78.8297 102.025 79.402 101.732 79.7881 101.271C80.1742 101.732 80.7465 102.025 81.3841 102.025C82.0217 102.025 82.594 101.732 82.9801 101.271C83.2601 101.605 83.6384 101.851 84.0682 101.961V113.609H67.8544V114.652H86.4766C86.7566 114.652 86.9844 114.886 86.9844 115.174V115.957Z" fill="black" id="svg_42"/>
</mask>


























<g class="currentLayer" style=""><title>Layer 1</title><path fill-rule="evenodd" clip-rule="evenodd" d="M16.954848385620117,23.171044236183167 H23.41704838562012 C24.08634838562012,23.171044236183167 24.67514838562012,22.812844236183167 24.914948385620114,22.258344236183166 C25.148448385620114,21.718544236183167 25.010648385620115,21.111444236183168 24.547648385620114,20.664544236183165 L20.257648385620115,16.647644236183165 H22.16684838562012 C22.813548385620116,16.647644236183165 23.39494838562012,16.267144236183167 23.64714838562012,15.677944236183166 C23.90564838562012,15.076144236183167 23.76844838562012,14.398244236183167 23.314448385620118,13.968244236183166 L19.05614838562012,9.703044236183167 C19.05104838562012,9.686744236183166 19.052148385620114,9.660644236183167 19.05704838562012,9.633544236183166 C19.060348385620117,9.615444236183166 19.06534838562012,9.597044236183166 19.071448385620116,9.580744236183167 H20.00374838562012 C20.684848385620114,9.580744236183167 21.274848385620118,9.231844236183166 21.508948385620116,8.691364236183167 C21.73164838562012,8.174434236183167 21.590548385620117,7.585694236183166 21.13494838562012,7.1481242361831665 L15.163348385620118,1.5233942361831665 C14.56944838562012,0.9531042361831665 13.495548385620118,0.9922542361831665 12.899348385620115,1.5651942361831663 L6.912448385620117,7.127944236183167 C6.460248385620119,7.561804236183166 6.320348385620115,8.157574236183166 6.546448385620117,8.682214236183167 C6.782148385620118,9.227944236183166 7.372148385620115,9.580744236183167 8.049348385620114,9.580744236183167 H8.987848385620119 C8.992648385620114,9.592244236183166 8.997048385620118,9.604044236183167 9.000848385620117,9.614444236183166 C9.00694838562012,9.630844236183167 9.01164838562012,9.643744236183167 9.014548385620117,9.645444236183167 L4.755048385620114,13.848644236183167 C4.2744483856201185,14.305344236183167 4.141848385620115,15.014244236183167 4.416748385620117,15.656144236183167 C4.679048385620121,16.267744236183166 5.241848385620116,16.647644236183165 5.886248385620121,16.647644236183165 H7.8635483856201205 L3.496848385620119,20.701944236183166 C3.044648385620114,21.137444236183168 2.905848385620118,21.737544236183165 3.135948385620118,22.267644236183166 C3.373348385620119,22.816144236183167 3.9622483856201143,23.171044236183167 4.636048385620114,23.171044236183167 H10.720848385620116 V25.448944236183166 C10.720848385620116,26.461044236183167 11.22074838562012,27.115044236183167 12.369448385620117,27.115044236183167 H14.708848385620115 C15.926148385620117,27.115044236183167 16.954848385620117,26.405144236183165 16.954848385620117,25.305844236183166 V23.171044236183167 zM15.254648385620115,23.171044236183167 H12.421048385620118 V25.467344236183166 C12.421048385620118,25.471344236183167 12.387248385620119,25.475444236183165 12.362948385620115,25.478644236183168 C12.337248385620114,25.481944236183168 12.322248385620114,25.484244236183166 12.369448385620117,25.484244236183166 H14.708848385620115 C14.890248385620119,25.484244236183166 15.100448385620119,25.449944236183168 15.11864838562012,25.436444236183167 L15.123848385620114,25.434344236183165 C15.148948385620116,25.425044236183165 15.254648385620115,25.385944236183168 15.254648385620115,25.305844236183166 V23.171044236183167 zM23.048148385620117,21.540244236183167 L18.767148385620118,17.531044236183167 C18.302448385620117,17.083644236183165 18.165848385620116,16.473844236183165 18.401048385620115,15.931844236183167 C18.641848385620115,15.375744236183166 19.22954838562012,15.016844236183166 19.898348385620118,15.016844236183166 H22.00824838562012 L17.814448385620118,10.806144236183167 C17.350948385620114,10.366244236183167 17.218348385620118,9.615644236183167 17.501648385620115,8.954014236183166 C17.76744838562012,8.334754236183166 18.326748385620114,7.949874236183167 18.962148385620118,7.949874236183167 H19.558848385620117 L14.046348385620114,2.7562142361831667 L8.472148385620116,7.947744236183167 L9.090948385620116,7.949874236183167 C9.729148385620114,7.949874236183167 10.290148385620114,8.332634236183166 10.554748385620115,8.949634236183167 C10.83764838562012,9.608944236183167 10.706748385620116,10.333044236183166 10.222148385620116,10.793644236183166 L5.962748385620117,14.996844236183167 C5.966448385620119,14.995644236183166 5.96884838562012,14.996144236183166 5.970648385620116,14.997744236183166 C5.974248385620115,15.000944236183166 5.975648385620119,15.008244236183167 5.979648385620116,15.016844236183166 H8.154748385620117 C8.814448385620118,15.016844236183166 9.399248385620119,15.383844236183165 9.645748385620116,15.951944236183166 C9.890648385620118,16.517244236183167 9.755148385620117,17.144544236183165 9.293848385620116,17.589344236183166 L5.040648385620116,21.53804423618317 L23.048148385620117,21.540244236183167 z" fill="#17A3D1" id="svg_84" class=""/><path fill-rule="evenodd" clip-rule="evenodd" d="M16.069892621803284,23.171044236183167 H22.532092621803287 C23.201392621803286,23.171044236183167 23.790192621803286,22.812844236183167 24.02999262180328,22.258344236183166 C24.26349262180328,21.718544236183167 24.12569262180328,21.111444236183168 23.66269262180328,20.664544236183165 L19.37269262180328,16.647644236183165 H21.281892621803287 C21.928592621803283,16.647644236183165 22.509992621803285,16.267144236183167 22.762192621803287,15.677944236183166 C23.020692621803285,15.076144236183167 22.883492621803285,14.398244236183167 22.429492621803284,13.968244236183166 L18.171192621803286,9.703044236183167 C18.166092621803287,9.686744236183166 18.16719262180328,9.660644236183167 18.172092621803287,9.633544236183166 C18.175392621803283,9.615444236183166 18.180392621803286,9.597044236183166 18.186492621803282,9.580744236183167 H19.118792621803287 C19.79989262180328,9.580744236183167 20.389892621803284,9.231844236183166 20.623992621803282,8.691364236183167 C20.846692621803285,8.174434236183167 20.70559262180329,7.585694236183166 20.249992621803287,7.1481242361831665 L14.278392621803285,1.5233942361831665 C13.684492621803287,0.9531042361831665 12.610592621803285,0.9922542361831665 12.014392621803282,1.5651942361831663 L6.027492621803283,7.127944236183167 C5.575292621803285,7.561804236183166 5.435392621803281,8.157574236183166 5.6614926218032835,8.682214236183167 C5.897192621803285,9.227944236183166 6.487192621803281,9.580744236183167 7.16439262180328,9.580744236183167 H8.102892621803285 C8.107692621803281,9.592244236183166 8.112092621803285,9.604044236183167 8.115892621803283,9.614444236183166 C8.121992621803287,9.630844236183167 8.126692621803286,9.643744236183167 8.129592621803283,9.645444236183167 L3.8700926218032805,13.848644236183167 C3.389492621803285,14.305344236183167 3.2568926218032814,15.014244236183167 3.531792621803291,15.656144236183167 C3.794092621803287,16.267744236183166 4.356892621803283,16.647644236183165 5.001292621803287,16.647644236183165 H6.978592621803287 L2.6118926218032854,20.701944236183166 C2.1596926218032806,21.137444236183168 2.0208926218032843,21.737544236183165 2.2509926218032845,22.267644236183166 C2.4883926218032855,22.816144236183167 3.077292621803281,23.171044236183167 3.7510926218032807,23.171044236183167 H9.835892621803282 V25.448944236183166 C9.835892621803282,26.461044236183167 10.335792621803286,27.115044236183167 11.484492621803284,27.115044236183167 H13.823892621803282 C15.041192621803283,27.115044236183167 16.069892621803284,26.405144236183165 16.069892621803284,25.305844236183166 V23.171044236183167 zM14.369692621803281,23.171044236183167 H11.536092621803284 V25.467344236183166 C11.536092621803284,25.471344236183167 11.502292621803285,25.475444236183165 11.477992621803281,25.478644236183168 C11.45229262180328,25.481944236183168 11.43729262180328,25.484244236183166 11.484492621803284,25.484244236183166 H13.823892621803282 C14.005292621803285,25.484244236183166 14.215492621803286,25.449944236183168 14.233692621803286,25.436444236183167 L14.23889262180328,25.434344236183165 C14.263992621803283,25.425044236183165 14.369692621803281,25.385944236183168 14.369692621803281,25.305844236183166 V23.171044236183167 zM22.163192621803283,21.540244236183167 L17.882192621803284,17.531044236183167 C17.417492621803284,17.083644236183165 17.280892621803282,16.473844236183165 17.51609262180328,15.931844236183167 C17.75689262180328,15.375744236183166 18.344592621803287,15.016844236183166 19.013392621803284,15.016844236183166 H21.123292621803287 L16.929492621803284,10.806144236183167 C16.46599262180328,10.366244236183167 16.333392621803284,9.615644236183167 16.61669262180328,8.954014236183166 C16.882492621803287,8.334754236183166 17.44179262180328,7.949874236183167 18.077192621803285,7.949874236183167 H18.673892621803283 L13.16139262180328,2.7562142361831667 L7.587192621803283,7.947744236183167 L8.205992621803283,7.949874236183167 C8.84419262180328,7.949874236183167 9.40519262180328,8.332634236183166 9.669792621803282,8.949634236183167 C9.952692621803287,9.608944236183167 9.821792621803283,10.333044236183166 9.337192621803283,10.793644236183166 L5.077792621803283,14.996844236183167 C5.081492621803285,14.995644236183166 5.083892621803287,14.996144236183166 5.0856926218032825,14.997744236183166 C5.089292621803281,15.000944236183166 5.090692621803285,15.008244236183167 5.094692621803283,15.016844236183166 H7.269792621803283 C7.929492621803284,15.016844236183166 8.514292621803285,15.383844236183165 8.760792621803283,15.951944236183166 C9.005692621803284,16.517244236183167 8.870192621803291,17.144544236183165 8.408892621803282,17.589344236183166 L4.155692621803283,21.53804423618317 L22.163192621803283,21.540244236183167 z" fill="#17A3D1" class="" id="svg_43"/></g></svg>